{
  "ffprobe": {
    "packets_and_frames": {
      "frame": [
        {
          "best_effort_timestamp": "239616",
          "best_effort_timestamp_time": "4.992000",
          "channel_layout": "5.1",
          "channels": "6",
          "duration": "1008",
          "duration_time": "0.021000",
          "key_frame": "1",
          "media_type": "audio",
          "nb_samples": "1024",
          "pkt_dts": "239616",
          "pkt_dts_time": "4.992000",
          "pkt_duration": "1008",
          "pkt_duration_time": "0.021000",
          "pkt_pos": "1084636",
          "pkt_size": "668",
          "pts": "239616",
          "pts_time": "4.992000",
          "sample_fmt": "fltp",
          "stream_index": "1"
        },
        {
          "best_effort_timestamp": "62976",
          "best_effort_timestamp_time": "4.920000",
          "chroma_location": "left",
          "coded_picture_number": "120",
          "crop_bottom": "0",
          "crop_left": "0",
          "crop_right": "0",
          "crop_top": "0",
          "display_picture_number": "0",
          "duration": "512",
          "duration_time": "0.040000",
          "height": "720",
          "interlaced_frame": "0",
          "key_frame": "0",
          "media_type": "video",
          "pict_type": "P",
          "pix_fmt": "yuv420p",
          "pkt_duration": "512",
          "pkt_duration_time": "0.040000",
          "pkt_pos": "1063904",
          "pkt_size": "4374",
          "pts": "62976",
          "pts_time": "4.920000",
          "repeat_pict": "0",
          "sample_aspect_ratio": "1:1",
          "stream_index": "0",
          "top_field_first": "0",
          "width": "1280"
        },
        {
          "best_effort_timestamp": "63488",
          "best_effort_timestamp_time": "4.960000",
          "chroma_location": "left",
          "coded_picture_number": "124",
          "crop_bottom": "0",
          "crop_left": "0",
          "crop_right": "0",
          "crop_top": "0",
          "display_picture_number": "0",
          "duration": "512",
          "duration_time": "0.040000",
          "height": "720",
          "interlaced_frame": "0",
          "key_frame": "0",
          "media_type": "video",
          "pict_type": "P",
          "pix_fmt": "yuv420p",
          "pkt_duration": "512",
          "pkt_duration_time": "0.040000",
          "pkt_pos": "1078820",
          "pkt_size": "1053",
          "pts": "63488",
          "pts_time": "4.960000",
          "repeat_pict": "0",
          "sample_aspect_ratio": "1:1",
          "stream_index": "0",
          "top_field_first": "0",
          "width": "1280"
        }
      ],
      "packet": [
        {
          "codec_type": "audio",
          "dts": "239616",
          "dts_time": "4.992000",
          "duration": "1008",
          "duration_time": "0.021000",
          "flags": "K__",
          "pos": "1084636",
          "pts": "239616",
          "pts_time": "4.992000",
          "size": "668",
          "stream_index": "1"
        },
        {
          "codec_type": "audio",
          "dts": "239616",
          "dts_time": "4.992000",
          "duration": "1008",
          "duration_time": "0.021000",
          "flags": "K__",
          "pos": "1084636",
          "pts": "239616",
          "pts_time": "4.992000",
          "size": "668",
          "stream_index": "1"
        }
      ]
    }
  }
}
